<svg xmlns="http://www.w3.org/2000/svg" viewBox="0 0 24 24" fill="none" stroke="currentColor" stroke-width="2" stroke-linecap="round" stroke-linejoin="round">
    <g transform="translate(-1 2)">
    <path d="M12 18.5 C10.8 17 11.2 13.8 12.8 11 C14.2 8.6 14.6 6.6 14.2 4.5" />
    <path d="M14.2 4.5 C16.3 4.7 18.2 5.7 19.4 7.4" />
    <path d="M14.2 4.5 C16.6 3.6 18.9 3.6 21 4.4" />
    <path d="M14.2 4.5 C15.6 2.9 17.2 2.1 18.9 2" />
    <path d="M14.2 4.5 C12.1 4.7 10.2 5.7 9 7.4" />
    <path d="M14.2 4.5 C11.8 3.6 9.5 3.6 7.4 4.4" />
    <path d="M14.2 4.5 C12.8 2.9 11.2 2.1 9.5 2" />
    <path d="M6 19 H18" />
    </g>
</svg>