<svg xmlns="http://www.w3.org/2000/svg" viewBox="0 0 24 24" fill="none" stroke="currentColor" stroke-width="2" stroke-linecap="round" stroke-linejoin="round">
  <circle cx="12" cy="12" r="1.5"/>
  <line x1="12" y1="9.5" x2="12" y2="3"/>
  <line x1="14.165" y1="10.75" x2="19.794" y2="7.5"/>
  <line x1="14.165" y1="13.25" x2="19.794" y2="16.5"/>
  <line x1="12" y1="14.5" x2="12" y2="21"/>
  <line x1="9.835" y1="13.25" x2="4.206" y2="16.5"/>
  <line x1="9.835" y1="10.75" x2="4.206" y2="7.5"/>
  <line x1="12" y1="5.8" x2="13.732" y2="4.8"/>
  <line x1="12" y1="5.8" x2="10.268" y2="4.8"/>
  <line x1="17.369" y1="8.9" x2="19.101" y2="9.9"/>
  <line x1="17.369" y1="8.9" x2="17.369" y2="6.9"/>
  <line x1="17.369" y1="15.1" x2="17.369" y2="17.1"/>
  <line x1="17.369" y1="15.1" x2="19.101" y2="14.1"/>
  <line x1="12" y1="18.2" x2="13.732" y2="19.2"/>
  <line x1="12" y1="18.2" x2="10.268" y2="19.2"/>
  <line x1="6.631" y1="15.1" x2="4.899" y2="14.1"/>
  <line x1="6.631" y1="15.1" x2="6.631" y2="17.1"/>
  <line x1="6.631" y1="8.9" x2="6.631" y2="6.9"/>
  <line x1="6.631" y1="8.9" x2="4.899" y2="9.9"/>
</svg>
